<?xml version="1.0" encoding="UTF-8"?>
<svg version="1.1" viewBox="0 0 1920 1080" width="1280" height="1280" xmlns="http://www.w3.org/2000/svg">
<path transform="translate(1047,220)" d="m0 0 5 1 6 3 11 12 15 16v2h2l6 8 2 6v11l-5 13-5 12-4 8 1 5 11 9 14 12 22 18 9 7v2l4 2 11 9 14 12 13 10v2l6 3v2l4 2 13 11 11 9 26 22 9 7 6 8 4 8 2 9v13l-2 8-5 10-9 10-10 7-17 12-6 4h-2v2l-12 8-16 11 7 10 9 14 4 10 2 9 1 60 5 15 24 75 1 7v11l-3 12-5 9-8 9-9 6-12 4-9 1h-71l10 31 13 40 8 24 4 13h11v25h-83l-5-3-3-6v-7l3-5 5-4 43-1-5-19-5-16-3-9-7-20-3-9-4-11-4-14-1-1v-5h-2v-3h-70l-21-1-21-3-13-2-15-4-9-2-10-4-20-9-9-5v-2l-5-2-9-7-3-2v-2l-4-2-7-7v-2h-2l-9-12-2-5h-2l-6-13-5-11-6-20-3-16-2-16v-24l6-7 9-2 6 3 4 5 1 5 3 37 5 20 4 10 7 14 7 10v2h2l7 8 7 6v2l4 2 16 10 14 6 14 5 27 6 12 2 16 1 180 1 10-2 5-2 2-4 3-5 1-10-5-17-12-36-4-14-9-27-1-6v-33l-9 1-18 5-23 6h-7l-5-3-3-3-1-3v-7l3-5 3-3 21-6 23-6 13-4v-4l-6-10-9-13h-18l-10-3-12-7-10-9-8-11-8-16-3-11-1-13v-26l-11-18v-9l6-7 7-2 8 3 7 10 9 15 1 40 2 7 4 11 7 9v2l4 2 5 4 4 2h11l15-10h2v-2l15-10 13-9 17-12 6-4h2v-2l7-5 2-5h2v-8l-2-8-4-5-14-11-10-9-11-9-8-6v-2l-4-2-12-10-11-9-14-12-11-9-14-12-7-5v-2l-6-3v-2l-4-2-11-9-14-12-11-9-5-4-4 1-6 4-4 6-4 10-1 6 5 7v3h2l12 20 4 6v2h2l11 18 1 3v7l-3 6-6 3h-8l-6-4-35-55v-2l-18 5-32 7-14 4-14 3-8-1-5-4-2-4v-8l15-36 7-14 10-13 6-7h2v-2l15-11 15-8 13-5 18-4 15-4 18-4-1-5-3-1v-2h-2l-7-8-11-12-2-5 1-9 5-5zm9 76-15 4-21 5-16 6-10 6-10 8-9 10-7 11-5 12-1 5 10-2 26-6 19-5 5-11 6-12 5-6 2-1v-2l16-8 3-1 5-11v-2z" fill="#FEFEFE"/>
<path transform="translate(950,129)" d="m0 0h16l7 4 3 2v2h2l7 8 1 3 3 1v2h2l7 8 12 13 3 3v2h2l7 8 1 3h2l5 7 1 7-3 5-5 5-2 1h-6l-6-4-12-12v-2h-2l-7-8-12-13-13-14v-2h-2l-3-3-14 3-18 5-17 4-6 2-23 6-8 3h-3l8 17 5 12 4 17 1 1 2 22v15l-2 20-2 7-5 15-5 11-1 3h-2l-2 6-4 7h-2l-1 4-1 67-2 6-6 6h-8l-6-3-4-6v-77l10-16 7-12 5-14 3-11 1-7v-29l-3-15-6-18-10-20-7 1-17 4-20 6-28 7-8 3h-3v381h76v-142l4-6 5-3h8l3 1v2l3 1 2 3 1 6v141l-2 8-6 9-7 4-6 2h-81v167l-8 15-7 11-1 3h-2l-1 5-4 8-7 18-3 11-3 21-1 53h40v2h212v-2h66l6 4 3 7-1 7-5 6-2 1h-347v-25l2-1v-42l1-20 3-17 6-20 7-17 8-15 10-17 1-571 3-11 5-7 4-3h3v-2l27-7 14-4 150-40z" fill="#FEFEFE"/>
<path transform="translate(1038,222)" d="m0 0" fill="#FEFEFE"/>
<path transform="translate(1030,213)" d="m0 0" fill="#FEFEFE"/>
<path transform="translate(1028,211)" d="m0 0" fill="#FEFEFE"/>
</svg>
